<mxfile host="app.diagrams.net" modified="2023-05-03T15:25:15.202Z" agent="Mozilla/5.0 (Windows NT 10.0; Win64; x64; rv:109.0) Gecko/20100101 Firefox/112.0" etag="PM7ikSXPjKOkSUiUPjf8" version="21.2.0" type="github">
  <diagram name="Page-1" id="AGRQH91ummN5-7ZG4GxO">
    <mxGraphModel dx="1434" dy="782" grid="1" gridSize="10" guides="1" tooltips="1" connect="1" arrows="1" fold="1" page="1" pageScale="1" pageWidth="827" pageHeight="1169" math="0" shadow="0">
      <root>
        <mxCell id="0" />
        <mxCell id="1" parent="0" />
        <mxCell id="XPntcBGwAAafzZa0VOjH-4" value="" style="rounded=1;whiteSpace=wrap;html=1;" vertex="1" parent="1">
          <mxGeometry x="260" y="670" width="284" height="340" as="geometry" />
        </mxCell>
        <mxCell id="XPntcBGwAAafzZa0VOjH-3" value="" style="rounded=1;whiteSpace=wrap;html=1;" vertex="1" parent="1">
          <mxGeometry x="10" y="700" width="400" height="260" as="geometry" />
        </mxCell>
        <mxCell id="XPntcBGwAAafzZa0VOjH-1" value="" style="rounded=1;whiteSpace=wrap;html=1;" vertex="1" parent="1">
          <mxGeometry x="15" y="710" width="235" height="190" as="geometry" />
        </mxCell>
        <mxCell id="Cy_INPocvKz5EErwsBf5-5" value="" style="rounded=1;whiteSpace=wrap;html=1;" parent="1" vertex="1">
          <mxGeometry x="20" y="720" width="80" height="150" as="geometry" />
        </mxCell>
        <mxCell id="p9L2qInoOllsvoQGn4_z-24" value="" style="endArrow=none;html=1;rounded=0;entryX=0.5;entryY=0;entryDx=0;entryDy=0;" parent="1" target="p9L2qInoOllsvoQGn4_z-14" edge="1">
          <mxGeometry width="50" height="50" relative="1" as="geometry">
            <mxPoint x="170" y="140" as="sourcePoint" />
            <mxPoint x="250" y="160" as="targetPoint" />
            <Array as="points">
              <mxPoint x="430" y="140" />
            </Array>
          </mxGeometry>
        </mxCell>
        <mxCell id="p9L2qInoOllsvoQGn4_z-1" value="Technical Assurance Points&lt;br&gt;(physical)" style="rounded=0;whiteSpace=wrap;html=1;" parent="1" vertex="1">
          <mxGeometry x="110" y="80" width="120" height="60" as="geometry" />
        </mxCell>
        <mxCell id="p9L2qInoOllsvoQGn4_z-2" value="Time of day" style="ellipse;whiteSpace=wrap;html=1;" parent="1" vertex="1">
          <mxGeometry x="90" y="280" width="80" height="40" as="geometry" />
        </mxCell>
        <mxCell id="p9L2qInoOllsvoQGn4_z-3" value="Visibility" style="rounded=1;whiteSpace=wrap;html=1;" parent="1" vertex="1">
          <mxGeometry x="40" y="180" width="80" height="40" as="geometry" />
        </mxCell>
        <mxCell id="p9L2qInoOllsvoQGn4_z-4" value="Viewing Distance" style="ellipse;whiteSpace=wrap;html=1;" parent="1" vertex="1">
          <mxGeometry x="140" y="380" width="100" height="40" as="geometry" />
        </mxCell>
        <mxCell id="p9L2qInoOllsvoQGn4_z-5" value="Weather" style="ellipse;whiteSpace=wrap;html=1;" parent="1" vertex="1">
          <mxGeometry y="280" width="70" height="40" as="geometry" />
        </mxCell>
        <mxCell id="p9L2qInoOllsvoQGn4_z-6" value="" style="endArrow=none;html=1;rounded=0;exitX=0.5;exitY=1;exitDx=0;exitDy=0;entryX=0.5;entryY=0;entryDx=0;entryDy=0;" parent="1" source="p9L2qInoOllsvoQGn4_z-1" target="p9L2qInoOllsvoQGn4_z-3" edge="1">
          <mxGeometry width="50" height="50" relative="1" as="geometry">
            <mxPoint x="90" y="280" as="sourcePoint" />
            <mxPoint x="140" y="230" as="targetPoint" />
            <Array as="points">
              <mxPoint x="80" y="140" />
            </Array>
          </mxGeometry>
        </mxCell>
        <mxCell id="p9L2qInoOllsvoQGn4_z-7" value="Camera Quality" style="rounded=1;whiteSpace=wrap;html=1;" parent="1" vertex="1">
          <mxGeometry x="215" y="290" width="90" height="40" as="geometry" />
        </mxCell>
        <mxCell id="p9L2qInoOllsvoQGn4_z-8" value="" style="endArrow=none;html=1;rounded=0;entryX=0.5;entryY=1;entryDx=0;entryDy=0;exitX=0.5;exitY=0;exitDx=0;exitDy=0;" parent="1" source="p9L2qInoOllsvoQGn4_z-5" target="p9L2qInoOllsvoQGn4_z-3" edge="1">
          <mxGeometry width="50" height="50" relative="1" as="geometry">
            <mxPoint x="80" y="430" as="sourcePoint" />
            <mxPoint x="130" y="380" as="targetPoint" />
            <Array as="points">
              <mxPoint x="35" y="220" />
            </Array>
          </mxGeometry>
        </mxCell>
        <mxCell id="p9L2qInoOllsvoQGn4_z-9" value="" style="endArrow=none;html=1;rounded=0;exitX=0.5;exitY=1;exitDx=0;exitDy=0;" parent="1" source="p9L2qInoOllsvoQGn4_z-3" target="p9L2qInoOllsvoQGn4_z-2" edge="1">
          <mxGeometry width="50" height="50" relative="1" as="geometry">
            <mxPoint x="390" y="320" as="sourcePoint" />
            <mxPoint x="440" y="270" as="targetPoint" />
            <Array as="points">
              <mxPoint x="130" y="220" />
            </Array>
          </mxGeometry>
        </mxCell>
        <mxCell id="p9L2qInoOllsvoQGn4_z-10" value="" style="endArrow=none;html=1;rounded=0;exitX=0.5;exitY=1;exitDx=0;exitDy=0;entryX=0.5;entryY=0;entryDx=0;entryDy=0;" parent="1" source="p9L2qInoOllsvoQGn4_z-1" target="p9L2qInoOllsvoQGn4_z-7" edge="1">
          <mxGeometry width="50" height="50" relative="1" as="geometry">
            <mxPoint x="100" y="440" as="sourcePoint" />
            <mxPoint x="150" y="390" as="targetPoint" />
            <Array as="points">
              <mxPoint x="225" y="140" />
              <mxPoint x="260" y="140" />
            </Array>
          </mxGeometry>
        </mxCell>
        <mxCell id="p9L2qInoOllsvoQGn4_z-13" value="" style="endArrow=none;dashed=1;html=1;dashPattern=1 3;strokeWidth=2;rounded=0;exitX=1;exitY=0.5;exitDx=0;exitDy=0;entryX=0;entryY=0.5;entryDx=0;entryDy=0;" parent="1" source="p9L2qInoOllsvoQGn4_z-3" target="p9L2qInoOllsvoQGn4_z-7" edge="1">
          <mxGeometry width="50" height="50" relative="1" as="geometry">
            <mxPoint x="160" y="250" as="sourcePoint" />
            <mxPoint x="190" y="360" as="targetPoint" />
            <Array as="points">
              <mxPoint x="200" y="200" />
              <mxPoint x="200" y="310" />
            </Array>
          </mxGeometry>
        </mxCell>
        <mxCell id="p9L2qInoOllsvoQGn4_z-14" value="Railway Characteristics" style="rounded=1;whiteSpace=wrap;html=1;" parent="1" vertex="1">
          <mxGeometry x="380" y="530" width="100" height="40" as="geometry" />
        </mxCell>
        <mxCell id="p9L2qInoOllsvoQGn4_z-15" value="Stopping Distance" style="ellipse;whiteSpace=wrap;html=1;" parent="1" vertex="1">
          <mxGeometry x="70" y="590" width="90" height="50" as="geometry" />
        </mxCell>
        <mxCell id="p9L2qInoOllsvoQGn4_z-16" value="" style="endArrow=none;html=1;rounded=0;exitX=0.5;exitY=1;exitDx=0;exitDy=0;entryX=0.5;entryY=0;entryDx=0;entryDy=0;" parent="1" source="p9L2qInoOllsvoQGn4_z-7" target="p9L2qInoOllsvoQGn4_z-4" edge="1">
          <mxGeometry width="50" height="50" relative="1" as="geometry">
            <mxPoint x="390" y="300" as="sourcePoint" />
            <mxPoint x="440" y="250" as="targetPoint" />
            <Array as="points">
              <mxPoint x="190" y="330" />
            </Array>
          </mxGeometry>
        </mxCell>
        <mxCell id="p9L2qInoOllsvoQGn4_z-17" value="Reaction Time" style="ellipse;whiteSpace=wrap;html=1;" parent="1" vertex="1">
          <mxGeometry x="314" y="380" width="100" height="40" as="geometry" />
        </mxCell>
        <mxCell id="p9L2qInoOllsvoQGn4_z-18" value="" style="endArrow=none;html=1;rounded=0;exitX=0.5;exitY=0;exitDx=0;exitDy=0;" parent="1" source="p9L2qInoOllsvoQGn4_z-17" edge="1">
          <mxGeometry width="50" height="50" relative="1" as="geometry">
            <mxPoint x="250" y="430" as="sourcePoint" />
            <mxPoint x="260" y="330" as="targetPoint" />
            <Array as="points">
              <mxPoint x="364" y="330" />
            </Array>
          </mxGeometry>
        </mxCell>
        <mxCell id="p9L2qInoOllsvoQGn4_z-19" value="Technical Assurance Points &lt;br&gt;(Digital)" style="rounded=0;whiteSpace=wrap;html=1;" parent="1" vertex="1">
          <mxGeometry x="615" y="79" width="130" height="60" as="geometry" />
        </mxCell>
        <mxCell id="p9L2qInoOllsvoQGn4_z-20" value="% accuracy" style="ellipse;whiteSpace=wrap;html=1;" parent="1" vertex="1">
          <mxGeometry x="780" y="99" width="100" height="40" as="geometry" />
        </mxCell>
        <mxCell id="p9L2qInoOllsvoQGn4_z-21" value="" style="endArrow=none;html=1;rounded=0;exitX=1;exitY=1;exitDx=0;exitDy=0;entryX=0.5;entryY=1;entryDx=0;entryDy=0;" parent="1" source="p9L2qInoOllsvoQGn4_z-19" target="p9L2qInoOllsvoQGn4_z-20" edge="1">
          <mxGeometry width="50" height="50" relative="1" as="geometry">
            <mxPoint x="735" y="389" as="sourcePoint" />
            <mxPoint x="785" y="339" as="targetPoint" />
            <Array as="points">
              <mxPoint x="785" y="139" />
            </Array>
          </mxGeometry>
        </mxCell>
        <mxCell id="p9L2qInoOllsvoQGn4_z-23" value="Assume minimum zoom, maximum scope" style="shape=process;whiteSpace=wrap;html=1;backgroundOutline=1;" parent="1" vertex="1">
          <mxGeometry x="130" y="420" width="120" height="60" as="geometry" />
        </mxCell>
        <mxCell id="p9L2qInoOllsvoQGn4_z-25" value="" style="endArrow=none;html=1;rounded=0;exitX=0.5;exitY=0;exitDx=0;exitDy=0;entryX=0.5;entryY=1;entryDx=0;entryDy=0;" parent="1" source="p9L2qInoOllsvoQGn4_z-15" target="p9L2qInoOllsvoQGn4_z-14" edge="1">
          <mxGeometry width="50" height="50" relative="1" as="geometry">
            <mxPoint x="136" y="870" as="sourcePoint" />
            <mxPoint x="186" y="820" as="targetPoint" />
            <Array as="points">
              <mxPoint x="115" y="570" />
            </Array>
          </mxGeometry>
        </mxCell>
        <mxCell id="p9L2qInoOllsvoQGn4_z-29" value="Geography" style="ellipse;whiteSpace=wrap;html=1;" parent="1" vertex="1">
          <mxGeometry x="30" y="390" width="80" height="50" as="geometry" />
        </mxCell>
        <mxCell id="p9L2qInoOllsvoQGn4_z-31" value="E1:" style="text;html=1;strokeColor=none;fillColor=none;align=center;verticalAlign=middle;whiteSpace=wrap;rounded=0;" parent="1" vertex="1">
          <mxGeometry x="145" y="720" width="60" height="30" as="geometry" />
        </mxCell>
        <mxCell id="p9L2qInoOllsvoQGn4_z-32" value="Stopping Distance" style="text;html=1;strokeColor=none;fillColor=none;align=center;verticalAlign=middle;whiteSpace=wrap;rounded=0;" parent="1" vertex="1">
          <mxGeometry x="120" y="750" width="120" height="30" as="geometry" />
        </mxCell>
        <mxCell id="p9L2qInoOllsvoQGn4_z-33" value="E2:" style="text;html=1;strokeColor=none;fillColor=none;align=center;verticalAlign=middle;whiteSpace=wrap;rounded=0;" parent="1" vertex="1">
          <mxGeometry x="290" y="720" width="60" height="30" as="geometry" />
        </mxCell>
        <mxCell id="p9L2qInoOllsvoQGn4_z-34" value="Detection Time" style="text;html=1;strokeColor=none;fillColor=none;align=center;verticalAlign=middle;whiteSpace=wrap;rounded=0;" parent="1" vertex="1">
          <mxGeometry x="280" y="760" width="85" height="30" as="geometry" />
        </mxCell>
        <mxCell id="p9L2qInoOllsvoQGn4_z-35" value="E3:" style="text;html=1;strokeColor=none;fillColor=none;align=center;verticalAlign=middle;whiteSpace=wrap;rounded=0;" parent="1" vertex="1">
          <mxGeometry x="450" y="720" width="60" height="30" as="geometry" />
        </mxCell>
        <mxCell id="p9L2qInoOllsvoQGn4_z-36" value="Camera Quality" style="text;html=1;strokeColor=none;fillColor=none;align=center;verticalAlign=middle;whiteSpace=wrap;rounded=0;" parent="1" vertex="1">
          <mxGeometry x="450" y="760" width="60" height="30" as="geometry" />
        </mxCell>
        <mxCell id="p9L2qInoOllsvoQGn4_z-37" value="Time of day" style="text;html=1;strokeColor=none;fillColor=none;align=center;verticalAlign=middle;whiteSpace=wrap;rounded=0;" parent="1" vertex="1">
          <mxGeometry x="450" y="800" width="60" height="30" as="geometry" />
        </mxCell>
        <mxCell id="p9L2qInoOllsvoQGn4_z-38" value="Weather" style="text;html=1;strokeColor=none;fillColor=none;align=center;verticalAlign=middle;whiteSpace=wrap;rounded=0;" parent="1" vertex="1">
          <mxGeometry x="450" y="840" width="60" height="30" as="geometry" />
        </mxCell>
        <mxCell id="p9L2qInoOllsvoQGn4_z-41" value="Geography" style="text;html=1;strokeColor=none;fillColor=none;align=center;verticalAlign=middle;whiteSpace=wrap;rounded=0;" parent="1" vertex="1">
          <mxGeometry x="290" y="790" width="60" height="30" as="geometry" />
        </mxCell>
        <mxCell id="p9L2qInoOllsvoQGn4_z-45" value="" style="endArrow=none;dashed=1;html=1;dashPattern=1 3;strokeWidth=2;rounded=0;exitX=0.5;exitY=1;exitDx=0;exitDy=0;entryX=0;entryY=0;entryDx=0;entryDy=0;" parent="1" source="p9L2qInoOllsvoQGn4_z-5" target="p9L2qInoOllsvoQGn4_z-29" edge="1">
          <mxGeometry width="50" height="50" relative="1" as="geometry">
            <mxPoint x="430" y="430" as="sourcePoint" />
            <mxPoint x="480" y="380" as="targetPoint" />
            <Array as="points">
              <mxPoint x="35" y="390" />
            </Array>
          </mxGeometry>
        </mxCell>
        <mxCell id="p9L2qInoOllsvoQGn4_z-46" value="" style="endArrow=none;dashed=1;html=1;dashPattern=1 3;strokeWidth=2;rounded=0;exitX=0.5;exitY=1;exitDx=0;exitDy=0;entryX=1;entryY=0;entryDx=0;entryDy=0;" parent="1" source="p9L2qInoOllsvoQGn4_z-2" target="p9L2qInoOllsvoQGn4_z-29" edge="1">
          <mxGeometry width="50" height="50" relative="1" as="geometry">
            <mxPoint x="430" y="430" as="sourcePoint" />
            <mxPoint x="480" y="380" as="targetPoint" />
            <Array as="points">
              <mxPoint x="130" y="397" />
            </Array>
          </mxGeometry>
        </mxCell>
        <mxCell id="p9L2qInoOllsvoQGn4_z-47" value="" style="endArrow=none;dashed=1;html=1;dashPattern=1 3;strokeWidth=2;rounded=0;exitX=0.6;exitY=1;exitDx=0;exitDy=0;exitPerimeter=0;entryX=0;entryY=0;entryDx=0;entryDy=0;" parent="1" source="p9L2qInoOllsvoQGn4_z-29" target="p9L2qInoOllsvoQGn4_z-15" edge="1">
          <mxGeometry width="50" height="50" relative="1" as="geometry">
            <mxPoint x="430" y="430" as="sourcePoint" />
            <mxPoint x="480" y="380" as="targetPoint" />
            <Array as="points">
              <mxPoint x="80" y="560" />
            </Array>
          </mxGeometry>
        </mxCell>
        <mxCell id="p9L2qInoOllsvoQGn4_z-48" value="Binary Risk Classification" style="text;html=1;strokeColor=none;fillColor=none;align=center;verticalAlign=middle;whiteSpace=wrap;rounded=0;" parent="1" vertex="1">
          <mxGeometry x="135" y="800" width="90" height="30" as="geometry" />
        </mxCell>
        <mxCell id="p9L2qInoOllsvoQGn4_z-49" value="" style="endArrow=none;dashed=1;html=1;dashPattern=1 3;strokeWidth=2;rounded=0;" parent="1" edge="1">
          <mxGeometry width="50" height="50" relative="1" as="geometry">
            <mxPoint x="120" y="790" as="sourcePoint" />
            <mxPoint x="240" y="790" as="targetPoint" />
          </mxGeometry>
        </mxCell>
        <mxCell id="p9L2qInoOllsvoQGn4_z-50" value="" style="endArrow=none;dashed=1;html=1;dashPattern=1 3;strokeWidth=2;rounded=0;" parent="1" edge="1">
          <mxGeometry width="50" height="50" relative="1" as="geometry">
            <mxPoint x="265" y="830" as="sourcePoint" />
            <mxPoint x="405" y="830" as="targetPoint" />
          </mxGeometry>
        </mxCell>
        <mxCell id="p9L2qInoOllsvoQGn4_z-51" value="" style="endArrow=none;dashed=1;html=1;dashPattern=1 3;strokeWidth=2;rounded=0;" parent="1" edge="1">
          <mxGeometry width="50" height="50" relative="1" as="geometry">
            <mxPoint x="430" y="870" as="sourcePoint" />
            <mxPoint x="530" y="870" as="targetPoint" />
          </mxGeometry>
        </mxCell>
        <mxCell id="p9L2qInoOllsvoQGn4_z-52" value="Similarity Score" style="text;html=1;strokeColor=none;fillColor=none;align=center;verticalAlign=middle;whiteSpace=wrap;rounded=0;" parent="1" vertex="1">
          <mxGeometry x="290" y="840" width="60" height="30" as="geometry" />
        </mxCell>
        <mxCell id="p9L2qInoOllsvoQGn4_z-53" value="Temporal Alignment" style="text;html=1;strokeColor=none;fillColor=none;align=center;verticalAlign=middle;whiteSpace=wrap;rounded=0;" parent="1" vertex="1">
          <mxGeometry x="450" y="920" width="60" height="30" as="geometry" />
        </mxCell>
        <mxCell id="p9L2qInoOllsvoQGn4_z-54" value="Semantic Categorisation" style="text;html=1;strokeColor=none;fillColor=none;align=center;verticalAlign=middle;whiteSpace=wrap;rounded=0;" parent="1" vertex="1">
          <mxGeometry x="430" y="880" width="100" height="30" as="geometry" />
        </mxCell>
        <mxCell id="p9L2qInoOllsvoQGn4_z-55" value="Physical Values" style="text;html=1;strokeColor=none;fillColor=none;align=center;verticalAlign=middle;whiteSpace=wrap;rounded=0;" parent="1" vertex="1">
          <mxGeometry x="290" y="880" width="60" height="30" as="geometry" />
        </mxCell>
        <mxCell id="p9L2qInoOllsvoQGn4_z-56" value="Trajectory Estimation" style="text;html=1;strokeColor=none;fillColor=none;align=center;verticalAlign=middle;whiteSpace=wrap;rounded=0;" parent="1" vertex="1">
          <mxGeometry x="450" y="960" width="60" height="30" as="geometry" />
        </mxCell>
        <mxCell id="p9L2qInoOllsvoQGn4_z-57" value="Assume zero for our purposes, close to irrelevant" style="shape=process;whiteSpace=wrap;html=1;backgroundOutline=1;" parent="1" vertex="1">
          <mxGeometry x="304" y="420" width="120" height="60" as="geometry" />
        </mxCell>
        <mxCell id="p9L2qInoOllsvoQGn4_z-58" value="Detection Time" style="ellipse;whiteSpace=wrap;html=1;" parent="1" vertex="1">
          <mxGeometry x="230" y="490" width="90" height="50" as="geometry" />
        </mxCell>
        <mxCell id="p9L2qInoOllsvoQGn4_z-59" value="" style="endArrow=none;html=1;rounded=0;exitX=1;exitY=0.5;exitDx=0;exitDy=0;entryX=0;entryY=0.5;entryDx=0;entryDy=0;" parent="1" source="p9L2qInoOllsvoQGn4_z-4" target="p9L2qInoOllsvoQGn4_z-17" edge="1">
          <mxGeometry width="50" height="50" relative="1" as="geometry">
            <mxPoint x="350" y="510" as="sourcePoint" />
            <mxPoint x="400" y="460" as="targetPoint" />
          </mxGeometry>
        </mxCell>
        <mxCell id="p9L2qInoOllsvoQGn4_z-60" value="" style="endArrow=none;html=1;rounded=0;exitX=0.5;exitY=0;exitDx=0;exitDy=0;" parent="1" source="p9L2qInoOllsvoQGn4_z-58" edge="1">
          <mxGeometry width="50" height="50" relative="1" as="geometry">
            <mxPoint x="350" y="510" as="sourcePoint" />
            <mxPoint x="275" y="400" as="targetPoint" />
          </mxGeometry>
        </mxCell>
        <mxCell id="p9L2qInoOllsvoQGn4_z-61" value="" style="endArrow=none;html=1;rounded=0;exitX=0;exitY=0.5;exitDx=0;exitDy=0;entryX=0.5;entryY=0;entryDx=0;entryDy=0;" parent="1" source="p9L2qInoOllsvoQGn4_z-58" target="p9L2qInoOllsvoQGn4_z-15" edge="1">
          <mxGeometry width="50" height="50" relative="1" as="geometry">
            <mxPoint x="350" y="510" as="sourcePoint" />
            <mxPoint x="400" y="460" as="targetPoint" />
            <Array as="points">
              <mxPoint x="115" y="515" />
            </Array>
          </mxGeometry>
        </mxCell>
        <mxCell id="p9L2qInoOllsvoQGn4_z-62" value="Binary Risk Classification" style="ellipse;whiteSpace=wrap;html=1;" parent="1" vertex="1">
          <mxGeometry x="645" y="470" width="90" height="50" as="geometry" />
        </mxCell>
        <mxCell id="p9L2qInoOllsvoQGn4_z-63" value="Semantic Categorisation" style="rounded=1;whiteSpace=wrap;html=1;" parent="1" vertex="1">
          <mxGeometry x="500" y="190" width="90" height="40" as="geometry" />
        </mxCell>
        <mxCell id="p9L2qInoOllsvoQGn4_z-65" value="Size" style="ellipse;whiteSpace=wrap;html=1;" parent="1" vertex="1">
          <mxGeometry x="580" y="270" width="70" height="40" as="geometry" />
        </mxCell>
        <mxCell id="p9L2qInoOllsvoQGn4_z-66" value="Weight" style="ellipse;whiteSpace=wrap;html=1;" parent="1" vertex="1">
          <mxGeometry x="510" y="270" width="70" height="40" as="geometry" />
        </mxCell>
        <mxCell id="p9L2qInoOllsvoQGn4_z-67" value="Value" style="ellipse;whiteSpace=wrap;html=1;" parent="1" vertex="1">
          <mxGeometry x="440" y="270" width="70" height="40" as="geometry" />
        </mxCell>
        <mxCell id="p9L2qInoOllsvoQGn4_z-68" value="Physical Values" style="rounded=1;whiteSpace=wrap;html=1;" parent="1" vertex="1">
          <mxGeometry x="450" y="310" width="190" height="50" as="geometry" />
        </mxCell>
        <mxCell id="p9L2qInoOllsvoQGn4_z-69" value="" style="endArrow=none;html=1;rounded=0;entryX=0.5;entryY=1;entryDx=0;entryDy=0;exitX=0.5;exitY=0;exitDx=0;exitDy=0;" parent="1" source="p9L2qInoOllsvoQGn4_z-66" target="p9L2qInoOllsvoQGn4_z-63" edge="1">
          <mxGeometry width="50" height="50" relative="1" as="geometry">
            <mxPoint x="440" y="500" as="sourcePoint" />
            <mxPoint x="490" y="450" as="targetPoint" />
          </mxGeometry>
        </mxCell>
        <mxCell id="p9L2qInoOllsvoQGn4_z-70" value="" style="endArrow=none;html=1;rounded=0;exitX=0.5;exitY=0;exitDx=0;exitDy=0;" parent="1" source="p9L2qInoOllsvoQGn4_z-67" edge="1">
          <mxGeometry width="50" height="50" relative="1" as="geometry">
            <mxPoint x="440" y="500" as="sourcePoint" />
            <mxPoint x="550" y="250" as="targetPoint" />
            <Array as="points">
              <mxPoint x="475" y="250" />
            </Array>
          </mxGeometry>
        </mxCell>
        <mxCell id="p9L2qInoOllsvoQGn4_z-71" value="" style="endArrow=none;html=1;rounded=0;entryX=0.5;entryY=0;entryDx=0;entryDy=0;" parent="1" target="p9L2qInoOllsvoQGn4_z-65" edge="1">
          <mxGeometry width="50" height="50" relative="1" as="geometry">
            <mxPoint x="540" y="250" as="sourcePoint" />
            <mxPoint x="490" y="450" as="targetPoint" />
            <Array as="points">
              <mxPoint x="615" y="250" />
            </Array>
          </mxGeometry>
        </mxCell>
        <mxCell id="p9L2qInoOllsvoQGn4_z-72" value="Expected Behaviour" style="ellipse;whiteSpace=wrap;html=1;" parent="1" vertex="1">
          <mxGeometry x="650" y="270" width="80" height="40" as="geometry" />
        </mxCell>
        <mxCell id="p9L2qInoOllsvoQGn4_z-73" value="Memory" style="rounded=1;whiteSpace=wrap;html=1;" parent="1" vertex="1">
          <mxGeometry x="800" y="190" width="90" height="40" as="geometry" />
        </mxCell>
        <mxCell id="p9L2qInoOllsvoQGn4_z-74" value="Temporal Alignment" style="ellipse;whiteSpace=wrap;html=1;" parent="1" vertex="1">
          <mxGeometry x="730" y="270" width="80" height="40" as="geometry" />
        </mxCell>
        <mxCell id="p9L2qInoOllsvoQGn4_z-75" value="Physical Location" style="ellipse;whiteSpace=wrap;html=1;" parent="1" vertex="1">
          <mxGeometry x="810" y="270" width="70" height="40" as="geometry" />
        </mxCell>
        <mxCell id="p9L2qInoOllsvoQGn4_z-77" value="" style="endArrow=none;dashed=1;html=1;dashPattern=1 3;strokeWidth=2;rounded=0;entryX=0.5;entryY=0;entryDx=0;entryDy=0;" parent="1" target="p9L2qInoOllsvoQGn4_z-72" edge="1">
          <mxGeometry width="50" height="50" relative="1" as="geometry">
            <mxPoint x="610" y="250" as="sourcePoint" />
            <mxPoint x="510" y="460" as="targetPoint" />
            <Array as="points">
              <mxPoint x="690" y="250" />
            </Array>
          </mxGeometry>
        </mxCell>
        <mxCell id="p9L2qInoOllsvoQGn4_z-78" value="" style="endArrow=none;dashed=1;html=1;dashPattern=1 3;strokeWidth=2;rounded=0;" parent="1" edge="1">
          <mxGeometry width="50" height="50" relative="1" as="geometry">
            <mxPoint x="770" y="250" as="sourcePoint" />
            <mxPoint x="690" y="250" as="targetPoint" />
          </mxGeometry>
        </mxCell>
        <mxCell id="p9L2qInoOllsvoQGn4_z-79" value="" style="endArrow=none;html=1;rounded=0;entryX=0.5;entryY=1;entryDx=0;entryDy=0;exitX=0.5;exitY=0;exitDx=0;exitDy=0;" parent="1" source="p9L2qInoOllsvoQGn4_z-74" target="p9L2qInoOllsvoQGn4_z-73" edge="1">
          <mxGeometry width="50" height="50" relative="1" as="geometry">
            <mxPoint x="460" y="510" as="sourcePoint" />
            <mxPoint x="510" y="460" as="targetPoint" />
            <Array as="points">
              <mxPoint x="770" y="250" />
              <mxPoint x="845" y="250" />
            </Array>
          </mxGeometry>
        </mxCell>
        <mxCell id="p9L2qInoOllsvoQGn4_z-80" value="Trajectory Estimation" style="ellipse;whiteSpace=wrap;html=1;" parent="1" vertex="1">
          <mxGeometry x="650" y="360" width="80" height="40" as="geometry" />
        </mxCell>
        <mxCell id="p9L2qInoOllsvoQGn4_z-81" value="" style="endArrow=none;html=1;rounded=0;entryX=0.5;entryY=1;entryDx=0;entryDy=0;exitX=0.5;exitY=0;exitDx=0;exitDy=0;" parent="1" source="p9L2qInoOllsvoQGn4_z-80" target="p9L2qInoOllsvoQGn4_z-72" edge="1">
          <mxGeometry width="50" height="50" relative="1" as="geometry">
            <mxPoint x="630" y="510" as="sourcePoint" />
            <mxPoint x="680" y="460" as="targetPoint" />
          </mxGeometry>
        </mxCell>
        <mxCell id="p9L2qInoOllsvoQGn4_z-82" value="" style="endArrow=none;html=1;rounded=0;entryX=0.5;entryY=1;entryDx=0;entryDy=0;exitX=0.5;exitY=0;exitDx=0;exitDy=0;" parent="1" source="p9L2qInoOllsvoQGn4_z-62" target="p9L2qInoOllsvoQGn4_z-80" edge="1">
          <mxGeometry width="50" height="50" relative="1" as="geometry">
            <mxPoint x="630" y="510" as="sourcePoint" />
            <mxPoint x="680" y="460" as="targetPoint" />
          </mxGeometry>
        </mxCell>
        <mxCell id="p9L2qInoOllsvoQGn4_z-84" value="" style="endArrow=none;html=1;rounded=0;entryX=0.5;entryY=1;entryDx=0;entryDy=0;exitX=0.5;exitY=0;exitDx=0;exitDy=0;" parent="1" source="p9L2qInoOllsvoQGn4_z-75" target="p9L2qInoOllsvoQGn4_z-73" edge="1">
          <mxGeometry width="50" height="50" relative="1" as="geometry">
            <mxPoint x="630" y="500" as="sourcePoint" />
            <mxPoint x="680" y="450" as="targetPoint" />
          </mxGeometry>
        </mxCell>
        <mxCell id="p9L2qInoOllsvoQGn4_z-86" value="" style="endArrow=none;html=1;rounded=0;entryX=0.5;entryY=1;entryDx=0;entryDy=0;exitX=0.078;exitY=0.62;exitDx=0;exitDy=0;exitPerimeter=0;" parent="1" source="p9L2qInoOllsvoQGn4_z-62" target="p9L2qInoOllsvoQGn4_z-68" edge="1">
          <mxGeometry width="50" height="50" relative="1" as="geometry">
            <mxPoint x="630" y="500" as="sourcePoint" />
            <mxPoint x="680" y="450" as="targetPoint" />
            <Array as="points">
              <mxPoint x="545" y="500" />
            </Array>
          </mxGeometry>
        </mxCell>
        <mxCell id="p9L2qInoOllsvoQGn4_z-87" value="" style="endArrow=none;html=1;rounded=0;entryX=0.5;entryY=1;entryDx=0;entryDy=0;exitX=1;exitY=0.25;exitDx=0;exitDy=0;" parent="1" source="p9L2qInoOllsvoQGn4_z-63" target="p9L2qInoOllsvoQGn4_z-19" edge="1">
          <mxGeometry width="50" height="50" relative="1" as="geometry">
            <mxPoint x="630" y="500" as="sourcePoint" />
            <mxPoint x="680" y="450" as="targetPoint" />
            <Array as="points">
              <mxPoint x="680" y="200" />
            </Array>
          </mxGeometry>
        </mxCell>
        <mxCell id="p9L2qInoOllsvoQGn4_z-88" value="" style="endArrow=none;html=1;rounded=0;exitX=0;exitY=0.25;exitDx=0;exitDy=0;" parent="1" source="p9L2qInoOllsvoQGn4_z-73" edge="1">
          <mxGeometry width="50" height="50" relative="1" as="geometry">
            <mxPoint x="630" y="500" as="sourcePoint" />
            <mxPoint x="680" y="200" as="targetPoint" />
          </mxGeometry>
        </mxCell>
        <mxCell id="p9L2qInoOllsvoQGn4_z-89" value="Spot the Difference" style="ellipse;whiteSpace=wrap;html=1;" parent="1" vertex="1">
          <mxGeometry x="880" y="270" width="80" height="40" as="geometry" />
        </mxCell>
        <mxCell id="p9L2qInoOllsvoQGn4_z-90" value="" style="endArrow=none;html=1;rounded=0;exitX=0.5;exitY=0;exitDx=0;exitDy=0;" parent="1" source="p9L2qInoOllsvoQGn4_z-89" edge="1">
          <mxGeometry width="50" height="50" relative="1" as="geometry">
            <mxPoint x="720" y="460" as="sourcePoint" />
            <mxPoint x="840" y="250" as="targetPoint" />
            <Array as="points">
              <mxPoint x="920" y="250" />
            </Array>
          </mxGeometry>
        </mxCell>
        <mxCell id="p9L2qInoOllsvoQGn4_z-91" value="Similarity Score" style="rounded=1;whiteSpace=wrap;html=1;" parent="1" vertex="1">
          <mxGeometry x="745" y="310" width="205" height="50" as="geometry" />
        </mxCell>
        <mxCell id="p9L2qInoOllsvoQGn4_z-92" value="" style="endArrow=none;html=1;rounded=0;entryX=0.5;entryY=1;entryDx=0;entryDy=0;" parent="1" target="p9L2qInoOllsvoQGn4_z-91" edge="1">
          <mxGeometry width="50" height="50" relative="1" as="geometry">
            <mxPoint x="730" y="500" as="sourcePoint" />
            <mxPoint x="770" y="410" as="targetPoint" />
            <Array as="points">
              <mxPoint x="848" y="500" />
            </Array>
          </mxGeometry>
        </mxCell>
        <mxCell id="Cy_INPocvKz5EErwsBf5-1" value="E0:" style="text;html=1;strokeColor=none;fillColor=none;align=center;verticalAlign=middle;whiteSpace=wrap;rounded=0;" parent="1" vertex="1">
          <mxGeometry x="30" y="720" width="60" height="30" as="geometry" />
        </mxCell>
        <mxCell id="Cy_INPocvKz5EErwsBf5-2" value="Speed" style="text;html=1;strokeColor=none;fillColor=none;align=center;verticalAlign=middle;whiteSpace=wrap;rounded=0;" parent="1" vertex="1">
          <mxGeometry x="30" y="760" width="60" height="30" as="geometry" />
        </mxCell>
        <mxCell id="Cy_INPocvKz5EErwsBf5-3" value="Time" style="text;html=1;strokeColor=none;fillColor=none;align=center;verticalAlign=middle;whiteSpace=wrap;rounded=0;" parent="1" vertex="1">
          <mxGeometry x="30" y="790" width="60" height="30" as="geometry" />
        </mxCell>
        <mxCell id="Cy_INPocvKz5EErwsBf5-4" value="Processing Power" style="text;html=1;strokeColor=none;fillColor=none;align=center;verticalAlign=middle;whiteSpace=wrap;rounded=0;" parent="1" vertex="1">
          <mxGeometry x="30" y="830" width="60" height="30" as="geometry" />
        </mxCell>
        <mxCell id="Cy_INPocvKz5EErwsBf5-6" value="" style="endArrow=none;dashed=1;html=1;dashPattern=1 3;strokeWidth=2;rounded=0;exitX=0;exitY=0.2;exitDx=0;exitDy=0;exitPerimeter=0;" parent="1" edge="1" source="XPntcBGwAAafzZa0VOjH-1">
          <mxGeometry width="50" height="50" relative="1" as="geometry">
            <mxPoint x="23" y="750" as="sourcePoint" />
            <mxPoint x="103" y="750" as="targetPoint" />
          </mxGeometry>
        </mxCell>
        <mxCell id="XPntcBGwAAafzZa0VOjH-2" value="" style="endArrow=none;dashed=1;html=1;dashPattern=1 3;strokeWidth=2;rounded=0;exitX=0;exitY=0.2;exitDx=0;exitDy=0;exitPerimeter=0;" edge="1" parent="1" target="XPntcBGwAAafzZa0VOjH-1">
          <mxGeometry width="50" height="50" relative="1" as="geometry">
            <mxPoint x="23" y="750" as="sourcePoint" />
            <mxPoint x="103" y="750" as="targetPoint" />
          </mxGeometry>
        </mxCell>
        <mxCell id="XPntcBGwAAafzZa0VOjH-7" value="" style="endArrow=none;dashed=1;html=1;dashPattern=1 3;strokeWidth=2;rounded=0;entryX=0.63;entryY=0.008;entryDx=0;entryDy=0;entryPerimeter=0;exitX=0;exitY=0.906;exitDx=0;exitDy=0;exitPerimeter=0;" edge="1" parent="1" source="XPntcBGwAAafzZa0VOjH-4" target="XPntcBGwAAafzZa0VOjH-3">
          <mxGeometry width="50" height="50" relative="1" as="geometry">
            <mxPoint x="250" y="980" as="sourcePoint" />
            <mxPoint x="540" y="720" as="targetPoint" />
          </mxGeometry>
        </mxCell>
      </root>
    </mxGraphModel>
  </diagram>
</mxfile>
